:version 1.10
:name ASF
:units
  mass 1
  length 1
  angle deg
:documentation
  ASF file generated by Kaydara
:root
  axis xyz
  order  tx ty tz rx ry rz
  position 0 0 0
  orientation 0 0 0
:bonedata
  begin
    id 1
    name RightUpLegDummy
    direction -0.65628 -0.754516 0.00165102
    length 4.76918
    axis 0 0 0 xyz
  end
  begin
    id 2
    name RightUpLeg
    direction -0.145584 -0.923362 0.355256
    length 17.9961
    axis -24.7611 -13.1006 1.78531 xyz
    dof rx ry rz
  end
  begin
    id 3
    name RightLeg
    direction 0.263379 0.172355 -0.949171
    length 13.3386
    axis 89.6202 -21.1929 12.3855 xyz
    dof rx ry rz
  end
  begin
    id 4
    name RightFoot
    direction 0.224283 -0.968777 -0.105675
    length 5.86697
    axis 56.995 -39.6905 17.3365 xyz
    dof rx ry rz
  end
  begin
    id 5
    name RightToes
    direction -0.0806345 -0.9037 0.420506
    length 4.75197
    axis 146.825 -39.7828 17.6019 xyz
    dof rx ry rz
  end
  begin
    id 6
    name SpineDummy
    direction -3.39852e-014 1 9.33296e-014
    length 8.13779
    axis 0 0 0 xyz
  end
  begin
    id 7
    name Spine
    direction -0.156609 0.733703 0.661176
    length 7.14978
    axis 41.2365 5.68757 17.0844 xyz
    dof rx ry rz
  end
  begin
    id 8
    name Spine1
    direction 0 0 0
    length 0
    axis 42.8809 47.8308 -3.36039 xyz
    dof rx ry rz
  end
  begin
    id 9
    name HEadDummy
    direction 0.546431 0.701947 0.456819
    length 3.55512
    axis 42.8809 47.8308 -3.36039 xyz
  end
  begin
    id 10
    name HEad
    direction 0.23444 0.828559 0.508457
    length 7.35827
    axis 51.1864 49.2662 27.4903 xyz
    dof rx ry rz
  end
  begin
    id 11
    name LeftShoulder1Dummy
    direction 0.431183 0.475873 -0.766568
    length 2.49352
    axis 42.8809 47.8308 -3.36039 xyz
  end
  begin
    id 12
    name LeftShoulder1
    direction 0.268187 -0.383402 -0.883786
    length 4.48604
    axis -119.517 0.106469 35.1736 xyz
    dof rx ry rz
  end
  begin
    id 13
    name LeftArm
    direction 0.380567 -0.703221 -0.600541
    length 10.1142
    axis -5.41825 36.2925 7.8293 xyz
    dof rx ry rz
  end
  begin
    id 14
    name LeftForeArm
    direction 0.541071 -0.732356 -0.413396
    length 9.39839
    axis 4.65387 33.7604 7.81644 xyz
    dof rx ry rz
  end
  begin
    id 15
    name LeftHand
    direction 0.847511 -0.389379 -0.360707
    length 3.66142
    axis 7.65593 21.1436 -24.6758 xyz
    dof rx ry rz
  end
  begin
    id 16
    name RightShoulderDummy
    direction -0.692546 0.541855 0.476208
    length 2.49352
    axis 42.8809 47.8308 -3.36039 xyz
  end
  begin
    id 17
    name RightShoulder
    direction -0.870808 -0.316653 0.376065
    length 4.48602
    axis 141.571 51.133 -100.254 xyz
    dof rx ry rz
  end
  begin
    id 18
    name RightArm
    direction 0.366897 -0.87275 0.322015
    length 10.1142
    axis 92.3258 71.2036 138.917 xyz
    dof rx ry rz
  end
  begin
    id 19
    name RightForeArm
    direction 0.702487 -0.694568 0.155197
    length 9.39835
    axis 153.863 41.5092 -176.604 xyz
    dof rx ry rz
  end
  begin
    id 20
    name RightHand
    direction 0.79502 -0.601276 0.0800636
    length 3.66142
    axis 154.247 4.59222 142.9 xyz
    dof rx ry rz
  end
  begin
    id 21
    name LeftUpLegDummy
    direction 0.65628 -0.754516 0.00165102
    length 4.76919
    axis 0 0 0 xyz
  end
  begin
    id 22
    name LeftUpLeg
    direction -0.1277 -0.689368 0.713067
    length 17.9961
    axis -48.3385 -17.8675 0.791927 xyz
    dof rx ry rz
  end
  begin
    id 23
    name LeftLeg
    direction 0.109849 -0.991246 -0.0732378
    length 13.3386
    axis -2.05791 -7.30784 1.72042 xyz
    dof rx ry rz
  end
  begin
    id 24
    name LeftFoot
    direction 0.0448355 -0.272614 0.961078
    length 5.86697
    axis -18.7733 -7.89606 10.2113 xyz
    dof rx ry rz
  end
  begin
    id 25
    name LeftToes
    direction -0.18506 0.293668 0.937823
    length 4.75197
    axis 71.2267 -7.89606 10.2113 xyz
    dof rx ry rz
  end
:hierarchy
  begin
    root RightUpLegDummy SpineDummy LeftUpLegDummy
    RightUpLegDummy RightUpLeg
    RightUpLeg RightLeg
    RightLeg RightFoot
    RightFoot RightToes
    SpineDummy Spine
    Spine Spine1
    Spine1 HEadDummy LeftShoulder1Dummy RightShoulderDummy
    HEadDummy HEad
    LeftShoulder1Dummy LeftShoulder1
    LeftShoulder1 LeftArm
    LeftArm LeftForeArm
    LeftForeArm LeftHand
    RightShoulderDummy RightShoulder
    RightShoulder RightArm
    RightArm RightForeArm
    RightForeArm RightHand
    LeftUpLegDummy LeftUpLeg
    LeftUpLeg LeftLeg
    LeftLeg LeftFoot
    LeftFoot LeftToes
  end

:SAMPLES-PER-SECOND 30
:FULLY-SPECIFIED
:DEGREES
530
root  -19.3125 36.401 -13.9948 -177.261 42.2956 174.918
RightUpLeg  7.20133 8.50651 -9.32586
RightLeg  -73.7163 -28.3094 25.6867
RightFoot  31.5612 -1.55885 -9.61725
RightToes  -1.27222e-014 -6.36111e-015 6.36111e-015
Spine  -6.02966 -13.868 -12.9956
Spine1  7.41648 -9.24514 27.9239
HEad  -18.0863 -10.2438 -17.8567
LeftShoulder1  6.36111e-015 -1.33558e-015 6.49777e-015
LeftArm  29.4929 -15.9689 -29.9619
LeftForeArm  -6.65288 -33.1645 2.26008
LeftHand  -1.85906 -2.93698 -13.3341
RightShoulder  -4.77083e-015 -6.36111e-015 -3.18055e-015
RightArm  53.7308 -45.0321 -22.5958
RightForeArm  -10.0656 -4.39 -8.92252
RightHand  -1.74736 7.22892 7.65453
LeftUpLeg  9.7281 5.86865 12.2465
LeftLeg  -0.334988 -30.9981 -3.34517
LeftFoot  1.77403 4.6468 -14.7757
LeftToes  9.54166e-015 -1.91609e-011 -2.3878e-011
531
root  -19.042 36.7835 -14.6829 -178.597 40.606 175.161
RightUpLeg  8.17959 7.29886 -5.04129
RightLeg  -71.9058 -28.9644 24.8996
RightFoot  28.1021 -0.626606 -9.87626
RightToes  -1.27222e-014 -6.36111e-015 6.36111e-015
Spine  -8.71711 -14.3644 -14.2717
Spine1  7.60278 -9.12898 29.1372
HEad  -17.5832 -9.31053 -16.4393
LeftShoulder1  6.36111e-015 -1.33558e-015 6.49777e-015
LeftArm  23.2813 -8.98426 -25.7571
LeftForeArm  -9.81099 -30.4391 2.29101
LeftHand  -1.21097 -1.32086 -10.0124
RightShoulder  -4.77083e-015 -6.36111e-015 -3.18055e-015
RightArm  52.4083 -45.8547 -17.8533
RightForeArm  -11.7379 -3.16515 -9.93497
RightHand  -1.49729 6.34466 5.4856
LeftUpLeg  12.8642 5.26292 10.2968
LeftLeg  -2.02038 -30.0127 -2.60507
LeftFoot  1.92836 4.40909 -13.9609
LeftToes  9.54166e-015 -1.91609e-011 -2.3878e-011
532
root  -18.8535 37.1711 -15.3466 -179.703 39.6273 175.48
RightUpLeg  8.33004 6.16061 -1.14761
RightLeg  -71.0723 -28.7559 23.9127
RightFoot  25.3366 0.413957 -10.5467
RightToes  -1.27222e-014 -6.36111e-015 6.36111e-015
Spine  -11.3354 -14.6444 -15.0243
Spine1  7.14513 -8.97497 29.6282
HEad  -16.2254 -8.26022 -15.145
LeftShoulder1  6.36111e-015 -1.33558e-015 6.49777e-015
LeftArm  18.9788 -2.51298 -23.48
LeftForeArm  -12.8751 -28.4831 2.32466
LeftHand  -0.871015 -0.736245 -7.7241
RightShoulder  -4.77083e-015 -6.36111e-015 -3.18055e-015
RightArm  51.2321 -45.4012 -13.6011
RightForeArm  -12.7615 -1.19498 -11.1035
RightHand  -1.20957 5.18766 3.76507
LeftUpLeg  15.8078 5.49585 9.12624
LeftLeg  -3.69827 -29.3693 -1.93417
LeftFoot  2.53408 4.23363 -13.1732
LeftToes  9.54166e-015 -1.91609e-011 -2.3878e-011
533
root  -18.7521 37.5621 -15.9617 179.282 39.2278 175.729
RightUpLeg  7.94268 5.14889 2.28015
RightLeg  -70.3373 -27.1072 21.1829
RightFoot  22.7795 1.5294 -11.4785
RightToes  -1.27222e-014 -6.36111e-015 6.36111e-015
Spine  -13.6646 -14.7365 -15.3322
Spine1  5.95637 -8.85251 29.4625
HEad  -14.2387 -7.12059 -14.0139
LeftShoulder1  6.36111e-015 -1.33558e-015 6.49777e-015
LeftArm  16.5375 2.56731 -22.8291
LeftForeArm  -14.8433 -28.4334 2.66762
LeftHand  -0.813188 -0.661718 -7.26482
RightShoulder  -4.77083e-015 -6.36111e-015 -3.18055e-015
RightArm  50.8176 -44.5162 -11.8138
RightForeArm  -13.1394 1.54443 -12.4773
RightHand  -1.10789 4.6354 3.4977
LeftUpLeg  18.4046 6.72264 8.65041
LeftLeg  -5.23046 -28.7205 -1.35557
LeftFoot  3.90229 4.01618 -12.022
LeftToes  9.54166e-015 -1.91609e-011 -2.3878e-011
534
root  -18.7316 37.9303 -16.5207 178.016 39.2725 175.574
RightUpLeg  7.62662 4.97153 5.11294
RightLeg  -69.227 -23.6568 15.6282
RightFoot  19.7274 2.47599 -12.1556
RightToes  -1.27222e-014 -6.36111e-015 6.36111e-015
Spine  -15.662 -14.8485 -15.6284
Spine1  4.62829 -8.79818 29.0204
HEad  -12.0334 -5.83905 -13.1489
LeftShoulder1  6.36111e-015 -1.33558e-015 6.49777e-015
LeftArm  15.7888 5.01986 -23.6764
LeftForeArm  -15.4072 -29.743 3.25732
LeftHand  -0.799656 -0.568665 -7.4797
RightShoulder  -4.77083e-015 -6.36111e-015 -3.18055e-015
RightArm  50.5319 -42.7704 -11.5146
RightForeArm  -13.4738 3.43995 -13.5128
RightHand  -1.055 4.53576 3.0589
LeftUpLeg  20.8388 8.18523 8.03027
LeftLeg  -6.84919 -27.6239 -0.791777
LeftFoot  5.61825 3.78155 -10.8023
LeftToes  9.54166e-015 -1.91609e-011 -2.3878e-011
535
root  -18.7616 38.2794 -17.0524 176.616 39.8067 175.18
RightUpLeg  7.76157 5.77427 7.42516
RightLeg  -69.8487 -19.4131 9.46179
RightFoot  16.3858 3.1201 -12.383
RightToes  -1.27222e-014 -6.36111e-015 6.36111e-015
Spine  -17.7964 -14.7307 -15.6355
Spine1  3.679 -8.61771 28.372
HEad  -9.63038 -4.49146 -12.6573
LeftShoulder1  6.36111e-015 -1.33558e-015 6.49777e-015
LeftArm  16.4634 4.25627 -25.8939
LeftForeArm  -14.5096 -31.2162 3.63756
LeftHand  -0.728259 -0.38944 -7.29327
RightShoulder  -4.77083e-015 -6.36111e-015 -3.18055e-015
RightArm  49.7025 -40.3477 -11.9109
RightForeArm  -14.0977 3.31502 -13.6967
RightHand  -0.78719 3.84039 1.30852
LeftUpLeg  23.656 9.36786 7.25966
LeftLeg  -9.36778 -26.643 0.00967495
LeftFoot  6.73762 3.63833 -10.0912
LeftToes  9.54166e-015 -1.91609e-011 -2.3878e-011
536
root  -18.8119 38.5837 -17.5776 175.317 40.6713 174.896
RightUpLeg  8.52011 6.41309 9.21106
RightLeg  -74.6951 -16.5953 6.63617
RightFoot  14.0997 3.95496 -13.2551
RightToes  -1.27222e-014 -6.36111e-015 6.36111e-015
Spine  -20.3231 -14.0819 -14.8725
Spine1  2.93401 -8.27523 27.3909
HEad  -6.80479 -3.29882 -12.306
LeftShoulder1  6.36111e-015 -1.33558e-015 6.49777e-015
LeftArm  18.425 1.43745 -28.9415
LeftForeArm  -12.6746 -32.6505 3.74499
LeftHand  -0.734396 -0.343547 -7.56086
RightShoulder  -4.77083e-015 -6.36111e-015 -3.18055e-015
RightArm  48.5735 -38.3724 -13.2622
RightForeArm  -14.9233 1.83869 -13.2758
RightHand  -0.249048 2.35583 -1.43104
LeftUpLeg  27.1349 10.4708 6.89821
LeftLeg  -13.05 -26.2278 1.15292
LeftFoot  6.6265 3.53869 -9.84505
LeftToes  9.54166e-015 -1.91609e-011 -2.3878e-011
537
root  -18.8797 38.7357 -18.0819 173.661 41.45 174.263
RightUpLeg  9.94815 6.26093 9.94614
RightLeg  -82.5722 -15.4795 8.66646
RightFoot  13.5453 6.16249 -17.0048
RightToes  -1.27222e-014 -6.36111e-015 6.36111e-015
Spine  -22.6385 -13.5108 -14.1897
Spine1  2.05065 -8.08273 26.4299
HEad  -3.76674 -2.24265 -11.6847
LeftShoulder1  6.36111e-015 -1.33558e-015 6.49777e-015
LeftArm  21.2648 -1.59723 -32.2143
LeftForeArm  -10.6954 -34.3883 3.84253
LeftHand  -1.02733 -0.906881 -9.14745
RightShoulder  -4.77083e-015 -6.36111e-015 -3.18055e-015
RightArm  47.684 -36.9851 -15.3953
RightForeArm  -15.8123 0.559978 -12.9556
RightHand  0.375921 0.780683 -4.11746
LeftUpLeg  30.5646 11.7603 6.31512
LeftLeg  -16.4017 -25.4424 2.07634
LeftFoot  5.52093 3.29289 -9.4374
LeftToes  9.54166e-015 -1.91609e-011 -2.3878e-011
538
root  -18.973 38.7214 -18.5497 171.18 42.0051 172.65
RightUpLeg  11.4882 6.64766 9.40545
RightLeg  -88.6226 -14.9579 13.0984
RightFoot  13.7636 9.25822 -22.5162
RightToes  -1.27222e-014 -6.36111e-015 6.36111e-015
Spine  -24.3727 -13.6812 -14.6307
Spine1  1.30292 -8.08793 26.2139
HEad  -1.11859 -1.26361 -10.9776
LeftShoulder1  6.36111e-015 -1.33558e-015 6.49777e-015
LeftArm  24.2623 -4.75408 -35.7678
LeftForeArm  -9.20535 -35.2896 3.71212
LeftHand  -1.42781 -1.88496 -10.8312
RightShoulder  -4.77083e-015 -6.36111e-015 -3.18055e-015
RightArm  46.7644 -35.0797 -17.4903
RightForeArm  -16.7306 0.149176 -13.0569
RightHand  0.82686 -0.356228 -5.69604
LeftUpLeg  32.9404 13.128 4.33393
LeftLeg  -17.9023 -23.2679 2.15932
LeftFoot  4.38572 2.90364 -8.58576
LeftToes  9.54166e-015 -1.91609e-011 -2.3878e-011
539
root  -19.1001 38.6503 -18.9763 168.518 42.5918 170.546
RightUpLeg  12.4016 8.56947 8.24444
RightLeg  -89.4493 -15.3401 15.8212
RightFoot  13.6797 10.593 -24.8984
RightToes  -1.27222e-014 -6.36111e-015 6.36111e-015
Spine  -26.1522 -14.0675 -15.6013
Spine1  1.58354 -7.9008 26.5319
HEad  0.248778 -0.0579024 -10.3575
LeftShoulder1  6.36111e-015 -1.33558e-015 6.49777e-015
LeftArm  27.2376 -9.57617 -40.2063
LeftForeArm  -8.44469 -33.4657 2.87529
LeftHand  -1.55752 -2.24974 -11.2606
RightShoulder  -4.77083e-015 -6.36111e-015 -3.18055e-015
RightArm  45.1927 -32.4863 -19.405
RightForeArm  -17.619 0.360782 -13.4553
RightHand  1.1353 -1.12523 -6.65648
LeftUpLeg  34.0049 14.2447 1.4424
LeftLeg  -17.8982 -20.3674 1.60295
LeftFoot  3.82732 2.58259 -7.7563
LeftToes  9.54166e-015 -1.91609e-011 -2.3878e-011
540
root  -19.2531 38.6103 -19.3621 166.761 43.295 169.256
RightUpLeg  12.9045 9.99884 6.91274
RightLeg  -87.3103 -15.8397 14.6674
RightFoot  13.2637 9.96663 -23.7706
RightToes  -1.27222e-014 -6.36111e-015 6.36111e-015
Spine  -28.5397 -13.7046 -15.5173
Spine1  3.21734 -7.41918 26.1567
HEad  1.02593 0.564174 -10.4821
LeftShoulder1  6.36111e-015 -1.33558e-015 6.49777e-015
LeftArm  30.7283 -16.0804 -45.5716
LeftForeArm  -7.89299 -29.5071 1.56783
LeftHand  -1.39727 -1.71303 -11.127
RightShoulder  -4.77083e-015 -6.36111e-015 -3.18055e-015
RightArm  43.3133 -30.6319 -21.6086
RightForeArm  -18.5604 0.722904 -13.9521
RightHand  1.65872 -1.95728 -8.85321
LeftUpLeg  34.5555 15.2105 -0.228564
LeftLeg  -17.4774 -18.7365 1.16445
LeftFoot  3.42108 2.40936 -7.31832
LeftToes  9.54166e-015 -1.91609e-011 -2.3878e-011
541
root  -19.4138 38.6664 -19.7003 166.245 43.8214 169.664
RightUpLeg  13.8197 9.00224 5.67642
RightLeg  -86.5151 -15.2957 11.7831
RightFoot  13.3066 9.39097 -22.7354
RightToes  -1.27222e-014 -6.36111e-015 6.36111e-015
Spine  -30.9646 -12.3093 -13.6748
Spine1  4.92721 -6.99106 24.9384
HEad  1.86332 0.631911 -10.6516
LeftShoulder1  6.36111e-015 -1.33558e-015 6.49777e-015
LeftArm  34.33 -21.41 -50.7412
LeftForeArm  -6.3351 -26.2006 0.424932
LeftHand  -1.25181 -1.02729 -11.8318
RightShoulder  -4.77083e-015 -6.36111e-015 -3.18055e-015
RightArm  42.1107 -30.5804 -23.8585
RightForeArm  -19.6934 0.891507 -14.4084
RightHand  2.54521 -3.07731 -12.5728
LeftUpLeg  35.8005 15.906 0.108143
LeftLeg  -17.6979 -18.7637 1.20764
LeftFoot  3.00293 2.34569 -7.20872
LeftToes  9.54166e-015 -1.91609e-011 -2.3878e-011
